<svg role="img" viewBox="0 0 24 24" xmlns="http://www.w3.org/2000/svg"><title>Cohere</title><path fill="#39594D" d="M12 0C5.373 0 0 5.373 0 12c0 4.873 2.903 9.067 7.077 10.948.09-.596.168-1.512.034-2.163-.12-.589-.775-3.8-.775-3.8s-.198-.396-.198-.98c0-.918.532-1.603 1.194-1.603.563 0 .835.423.835.93 0 .566-.361 1.414-.547 2.2-.156.658.33 1.194.98 1.194 1.175 0 2.079-1.24 2.079-3.03 0-1.584-1.139-2.692-2.764-2.692-1.883 0-2.988 1.412-2.988 2.872 0 .569.219 1.178.492 1.51a.198.198 0 0 1 .046.19c-.05.21-.163.658-.185.75-.029.12-.095.146-.22.088-.82-.381-1.332-1.58-1.332-2.542 0-2.07 1.503-3.97 4.334-3.97 2.275 0 4.042 1.62 4.042 3.787 0 2.26-1.425 4.08-3.403 4.08-.665 0-1.289-.345-1.503-.753l-.409 1.56c-.148.57-.548 1.286-.816 1.72A12 12 0 0 0 12 24c6.627 0 12-5.373 12-12S18.627 0 12 0z"/></svg>
