<svg role="img" viewBox="0 0 24 24" xmlns="http://www.w3.org/2000/svg"><title>DeepSeek</title><path fill="#4D6BFE" d="M12 0C5.373 0 0 5.373 0 12s5.373 12 12 12 12-5.373 12-12S18.627 0 12 0zm5.568 7.736c.086.325.086.678 0 1.003-.206.784-.81 1.32-1.527 1.671a6.327 6.327 0 0 1-1.54.539c.325.465.507 1.018.507 1.612 0 .737-.296 1.405-.776 1.89a4.41 4.41 0 0 1-.575.48c1.36.527 2.323 1.655 2.323 2.98 0 1.813-1.876 3.282-4.19 3.282S7.6 19.724 7.6 17.911c0-1.275.89-2.368 2.17-2.924a2.689 2.689 0 0 1-.725-1.838c0-.613.204-1.183.551-1.658a5.41 5.41 0 0 1-.788-.214c-1.11-.389-1.934-1.1-2.11-2.058a1.834 1.834 0 0 1 .038-1.003c.36-1.024 1.584-1.541 2.929-1.372a5.66 5.66 0 0 1 2.33.882 5.66 5.66 0 0 1 2.33-.882c1.344-.169 2.569.348 2.928 1.372h.014zm-5.574 5.64a1.794 1.794 0 0 0-1.218 1.696c0 .996.806 1.803 1.803 1.803a1.803 1.803 0 0 0 1.218-3.14 3.627 3.627 0 0 1-1.803-.36zm1.789-5.91c-.86-.556-1.937-.713-2.673-.252-.413.258-.607.697-.518 1.128.118.578.671.976 1.368 1.22.324.112.67.188 1.002.237a2.598 2.598 0 0 1 .81-.366 5.31 5.31 0 0 0 1.085-.455c.503-.284.84-.64.923-1.016.065-.293-.02-.6-.28-.85-.578-.376-1.172-.367-1.717.354z"/></svg>
