<svg role="img" viewBox="0 0 24 24" xmlns="http://www.w3.org/2000/svg"><title>LlamaIndex</title><path fill="#A855F7" d="M12 1C5.925 1 1 5.925 1 12s4.925 11 11 11 11-4.925 11-11S18.075 1 12 1zm-.5 4h1a.5.5 0 0 1 .5.5v3.793l2.646-2.647a.5.5 0 0 1 .708 0l.707.708a.5.5 0 0 1 0 .707L14.207 10H17.5a.5.5 0 0 1 .5.5v1a.5.5 0 0 1-.5.5h-3.793l2.647 2.646a.5.5 0 0 1 0 .708l-.708.707a.5.5 0 0 1-.707 0L12.293 13.5H12.5v4a.5.5 0 0 1-.5.5h-1a.5.5 0 0 1-.5-.5v-4h-.207l-2.647 2.561a.5.5 0 0 1-.707 0l-.708-.707a.5.5 0 0 1 0-.708L9.793 12H6.5a.5.5 0 0 1-.5-.5v-1a.5.5 0 0 1 .5-.5h3.293L7.146 7.354a.5.5 0 0 1 0-.708l.708-.707a.5.5 0 0 1 .707 0L11 8.586V5.5a.5.5 0 0 1 .5-.5z"/></svg>
