<svg role="img" viewBox="0 0 24 24" xmlns="http://www.w3.org/2000/svg"><title>Together AI</title><path fill="#0EA5E9" d="M5.5 3A2.5 2.5 0 0 0 3 5.5 2.5 2.5 0 0 0 5.5 8 2.5 2.5 0 0 0 8 5.5 2.5 2.5 0 0 0 5.5 3zm6.5 0a2.5 2.5 0 0 0-2.5 2.5A2.5 2.5 0 0 0 12 8a2.5 2.5 0 0 0 2.5-2.5A2.5 2.5 0 0 0 12 3zm6.5 0A2.5 2.5 0 0 0 16 5.5 2.5 2.5 0 0 0 18.5 8 2.5 2.5 0 0 0 21 5.5 2.5 2.5 0 0 0 18.5 3zM5.5 9.5A2.5 2.5 0 0 0 3 12a2.5 2.5 0 0 0 2.5 2.5A2.5 2.5 0 0 0 8 12a2.5 2.5 0 0 0-2.5-2.5zm6.5 0A2.5 2.5 0 0 0 9.5 12a2.5 2.5 0 0 0 2.5 2.5 2.5 2.5 0 0 0 2.5-2.5A2.5 2.5 0 0 0 12 9.5zm6.5 0A2.5 2.5 0 0 0 16 12a2.5 2.5 0 0 0 2.5 2.5A2.5 2.5 0 0 0 21 12a2.5 2.5 0 0 0-2.5-2.5zM5.5 16A2.5 2.5 0 0 0 3 18.5 2.5 2.5 0 0 0 5.5 21 2.5 2.5 0 0 0 8 18.5 2.5 2.5 0 0 0 5.5 16zm6.5 0a2.5 2.5 0 0 0-2.5 2.5A2.5 2.5 0 0 0 12 21a2.5 2.5 0 0 0 2.5-2.5A2.5 2.5 0 0 0 12 16zm6.5 0a2.5 2.5 0 0 0-2.5 2.5A2.5 2.5 0 0 0 18.5 21a2.5 2.5 0 0 0 2.5-2.5A2.5 2.5 0 0 0 18.5 16z"/></svg>
